<svg version="1.1" xmlns="http://www.w3.org/2000/svg" xmlns:xlink="http://www.w3.org/1999/xlink" width="755" height="414" viewBox="0,0,755,414"><g transform="translate(60.5,16)"><g stroke-miterlimit="10"><path d="M-60.5,398v-414h755v414z" fill="#636363" stroke="none" stroke-width="0" stroke-linecap="butt"/><text transform="translate(237.24141,181.6468) scale(0.1789,0.1789)" font-size="40" xml:space="preserve" fill="#000000" stroke="none" stroke-width="1" stroke-linecap="butt" font-family="Sans Serif" font-weight="normal" text-anchor="start"><tspan x="0" dy="0">Space Bricks per click</tspan></text><text transform="translate(332.51169,181.95292) scale(0.1789,0.1789)" font-size="40" xml:space="preserve" fill="#000000" stroke="none" stroke-width="1" stroke-linecap="butt" font-family="Sans Serif" font-weight="normal" text-anchor="start"><tspan x="0" dy="0">Space Bricks per second</tspan></text><text transform="translate(258.07474,232.6468) scale(0.18503,0.1789)" font-size="40" xml:space="preserve" fill="#000000" stroke="none" stroke-width="1" stroke-linecap="butt" font-family="Sans Serif" font-weight="normal" text-anchor="start"><tspan x="0" dy="0">Space Wall</tspan></text><text transform="translate(307.46628,284.1468) scale(0.1789,0.1789)" font-size="40" xml:space="preserve" fill="#000000" stroke="none" stroke-width="1" stroke-linecap="butt" font-family="Sans Serif" font-weight="normal" text-anchor="start"><tspan x="0" dy="0">Prestige</tspan></text><path d="M197.6896,82.25c-3.83263,0 -6.9396,-4.72267 -6.9396,-10.54839v-33.40323c0,-5.82571 3.10696,-10.54839 6.9396,-10.54839h244.62081c3.83263,0 6.9396,4.72267 6.9396,10.54839v33.40323c0,5.82571 -3.10696,10.54839 -6.9396,10.54839z" fill="#b1b1b1" stroke="#000000" stroke-width="4" stroke-linecap="butt"/><text transform="translate(203.17558,65.80268) scale(1.06689,1.06689)" font-size="40" xml:space="preserve" fill="#000000" stroke="none" stroke-width="1" stroke-linecap="butt" font-family="Sans Serif" font-weight="normal" text-anchor="start"><tspan x="0" dy="0">Space Shop</tspan></text><path d="M422.32673,261.5c-1.8373,0 -3.32673,-1.15623 -3.32673,-2.58252v-127.83495c0,-1.42629 1.48943,-2.58252 3.32673,-2.58252h161.34653c1.8373,0 3.32673,1.15623 3.32673,2.58252v127.83495c0,1.42629 -1.48943,2.58252 -3.32673,2.58252z" fill="#b1b1b1" stroke="#000000" stroke-width="4" stroke-linecap="butt"/><text transform="translate(426.09749,156.84675) scale(0.5034,0.5034)" font-size="40" xml:space="preserve" fill="#000000" stroke="none" stroke-width="1" stroke-linecap="butt" font-family="Sans Serif" font-weight="normal" text-anchor="start"><tspan x="0" dy="0">Multiplier Chart</tspan></text><path d="M572.30303,166.81083h-141" fill="none" stroke="#000000" stroke-width="2.5" stroke-linecap="round"/><text transform="translate(443.59749,185.0875) scale(0.35834,0.35834)" font-size="40" xml:space="preserve" fill="#000000" stroke="none" stroke-width="1" stroke-linecap="butt" font-family="Sans Serif" font-weight="normal" text-anchor="start"><tspan x="0" dy="0">0 Twitter rants = 1</tspan></text><text transform="translate(432.59749,202.0875) scale(0.35834,0.35834)" font-size="40" xml:space="preserve" fill="#000000" stroke="none" stroke-width="1" stroke-linecap="butt" font-family="Sans Serif" font-weight="normal" text-anchor="start"><tspan x="0" dy="0">100 Twitter rants = 2</tspan></text><text transform="translate(433.59749,218.5875) scale(0.35834,0.35834)" font-size="40" xml:space="preserve" fill="#000000" stroke="none" stroke-width="1" stroke-linecap="butt" font-family="Sans Serif" font-weight="normal" text-anchor="start"><tspan x="0" dy="0">500 Twitter rants = 3</tspan></text><text transform="translate(429.59749,234.0875) scale(0.35834,0.35834)" font-size="40" xml:space="preserve" fill="#000000" stroke="none" stroke-width="1" stroke-linecap="butt" font-family="Sans Serif" font-weight="normal" text-anchor="start"><tspan x="0" dy="0">1500 Twitter rants = 4</tspan></text><text transform="translate(430.59749,249.0875) scale(0.35834,0.35834)" font-size="40" xml:space="preserve" fill="#000000" stroke="none" stroke-width="1" stroke-linecap="butt" font-family="Sans Serif" font-weight="normal" text-anchor="start"><tspan x="0" dy="0">5000 Twitter rants = 5</tspan></text><path d="M38,308.5c-3.31371,0 -6,-2.68629 -6,-6v-196c0,-3.31371 2.68629,-6 6,-6h159c3.31371,0 6,2.68629 6,6v196c0,3.31371 -2.68629,6 -6,6z" fill="#b1b1b1" stroke="#000000" stroke-width="4" stroke-linecap="butt"/><text transform="translate(45.56416,136.93817) scale(0.66119,0.66119)" font-size="40" xml:space="preserve" fill="#000000" stroke="none" stroke-width="1" stroke-linecap="butt" font-family="Sans Serif" font-weight="normal" text-anchor="start"><tspan x="0" dy="0">Space Stats</tspan></text><path d="M187.30303,148.81083h-141" fill="none" stroke="#000000" stroke-width="2.5" stroke-linecap="round"/><text transform="translate(45.59749,175.78877) scale(0.59536,0.59536)" font-size="40" xml:space="preserve" fill="#000000" stroke="none" stroke-width="1" stroke-linecap="butt" font-family="Sans Serif" font-weight="normal" text-anchor="start"><tspan x="0" dy="0">Bricks:</tspan></text><text transform="translate(46.59749,200.78877) scale(0.59536,0.59536)" font-size="40" xml:space="preserve" fill="#000000" stroke="none" stroke-width="1" stroke-linecap="butt" font-family="Sans Serif" font-weight="normal" text-anchor="start"><tspan x="0" dy="0">Walls:</tspan></text><text transform="translate(45.59749,226.78877) scale(0.59536,0.59536)" font-size="40" xml:space="preserve" fill="#000000" stroke="none" stroke-width="1" stroke-linecap="butt" font-family="Sans Serif" font-weight="normal" text-anchor="start"><tspan x="0" dy="0">BPC:</tspan></text><text transform="translate(46.09749,252.28877) scale(0.59536,0.59536)" font-size="40" xml:space="preserve" fill="#000000" stroke="none" stroke-width="1" stroke-linecap="butt" font-family="Sans Serif" font-weight="normal" text-anchor="start"><tspan x="0" dy="0">BPS:</tspan></text><text transform="translate(46.09749,277.28877) scale(0.59536,0.59536)" font-size="40" xml:space="preserve" fill="#000000" stroke="none" stroke-width="1" stroke-linecap="butt" font-family="Sans Serif" font-weight="normal" text-anchor="start"><tspan x="0" dy="0">Patrol:</tspan></text><text transform="translate(45.59749,300.03037) scale(0.49096,0.49096)" font-size="40" xml:space="preserve" fill="#000000" stroke="none" stroke-width="1" stroke-linecap="butt" font-family="Sans Serif" font-weight="normal" text-anchor="start"><tspan x="0" dy="0">Prestige:</tspan></text><text transform="translate(352.07474,232.6468) scale(0.1789,0.1789)" font-size="40" xml:space="preserve" fill="#000000" stroke="none" stroke-width="1" stroke-linecap="butt" font-family="Sans Serif" font-weight="normal" text-anchor="start"><tspan x="0" dy="0">Border Police</tspan></text></g></g></svg>