<svg version="1.1" xmlns="http://www.w3.org/2000/svg" xmlns:xlink="http://www.w3.org/1999/xlink" width="120.60796" height="59.91507" viewBox="0,0,120.60796,59.91507"><g transform="translate(-181.19602,-148.54247)"><g data-paper-data="{&quot;isPaintingLayer&quot;:true}" fill-rule="nonzero" stroke-linecap="butt" stroke-linejoin="miter" stroke-miterlimit="10" stroke-dasharray="" stroke-dashoffset="0" style="mix-blend-mode: normal"><path d="M188.09241,202.30274c-6.80324,-3.9875 -11.78515,-41.67512 1.14091,-48.35158c15.43488,-7.9723 89.40149,-6.40863 101.54081,0c16.00224,8.44796 13.69494,42.02222 -1.14091,50.03826c-12.80218,6.91722 -89.49257,5.37502 -101.54081,-1.68668z" fill="none" stroke="#000000" stroke-width="0"/><path d="M197.1739,195.0736c-5.45533,-2.63685 -9.45019,-27.55891 0.91486,-31.97391c12.37681,-5.27192 71.68864,-4.23789 81.42283,0c12.83176,5.58647 10.9816,27.78843 -0.91486,33.08928c-10.26572,4.57421 -71.76167,3.55439 -81.42283,-1.11537z" fill="#b1b1b1" stroke="#000000" stroke-width="3"/><text transform="translate(204.26649,189.27713) scale(0.80408,0.80408)" font-size="40" xml:space="preserve" fill="#000000" fill-rule="nonzero" stroke="none" stroke-width="1" stroke-linecap="butt" stroke-linejoin="miter" stroke-miterlimit="10" stroke-dasharray="" stroke-dashoffset="0" font-family="Sans Serif" font-weight="normal" text-anchor="start" style="mix-blend-mode: normal"><tspan x="0" dy="0">Save</tspan></text></g></g></svg>