<svg version="1.1" xmlns="http://www.w3.org/2000/svg" xmlns:xlink="http://www.w3.org/1999/xlink" width="382.35207" height="266.49449" viewBox="0,0,382.35207,266.49449"><g transform="translate(126.32918,-44.74976)"><g stroke-miterlimit="10"><path d="M-103.13776,282.67668c-21.39843,-17.53624 -37.0682,-183.27883 3.58852,-212.64056c48.54782,-35.06056 281.19741,-28.18388 319.3796,0c50.33235,37.15245 43.07513,184.80529 -3.58852,220.05826c-40.2671,30.42052 -281.48387,23.63825 -319.3796,-7.41769z" fill="#b1b1b1" stroke="#000000" stroke-width="3"/><text transform="translate(-104.40137,118.12415) scale(0.5,0.5)" font-size="40" xml:space="preserve" fill="#000000" stroke="none" stroke-width="1" font-family="Sans Serif" font-weight="normal" text-anchor="start"><tspan x="0" dy="0">Bricks Per Click: </tspan></text><text transform="translate(-104.63259,146.29097) scale(0.5,0.5)" font-size="40" xml:space="preserve" fill="#000000" stroke="none" stroke-width="1" font-family="Sans Serif" font-weight="normal" text-anchor="start"><tspan x="0" dy="0">Total Bricks:</tspan></text><text transform="translate(-104.11649,175.20511) scale(0.5,0.5)" font-size="40" xml:space="preserve" fill="#000000" stroke="none" stroke-width="1" font-family="Sans Serif" font-weight="normal" text-anchor="start"><tspan x="0" dy="0">Total Walls:</tspan><tspan x="0" dy="46.15px"> </tspan></text><text transform="translate(2.46494,86.73684) scale(0.88864,0.88864)" font-size="40" xml:space="preserve" fill="#000000" stroke="none" stroke-width="1" font-family="Sans Serif" font-weight="normal" text-anchor="start"><tspan x="0" dy="0">STATS</tspan></text><text transform="translate(-102.85307,201.8773) scale(0.5,0.5)" font-size="40" xml:space="preserve" fill="#000000" stroke="none" stroke-width="1" font-family="Sans Serif" font-weight="normal" text-anchor="start"><tspan x="0" dy="0">Bricks Per Second:</tspan></text><text transform="translate(-39.12618,230.50244) scale(0.5,0.5)" font-size="40" xml:space="preserve" fill="#000000" stroke="none" stroke-width="1" font-family="Sans Serif" font-weight="normal" text-anchor="middle"><tspan x="0" dy="0">Twitter rants:</tspan></text></g></g></svg>