<svg version="1.1" xmlns="http://www.w3.org/2000/svg" xmlns:xlink="http://www.w3.org/1999/xlink" width="755" height="414" viewBox="0,0,755,414"><g transform="translate(75.5,30.5)"><g stroke-miterlimit="10"><path d="M-75.5,383.5v-414h755v414z" fill="#636363" stroke="none" stroke-width="0" stroke-linecap="butt"/><text transform="translate(250.07474,181.6468) scale(0.1789,0.1789)" font-size="40" xml:space="preserve" fill="#000000" stroke="none" stroke-width="1" stroke-linecap="butt" font-family="Sans Serif" font-weight="normal" text-anchor="start"><tspan x="0" dy="0">Bricks per click</tspan></text><text transform="translate(344.51169,181.95292) scale(0.1789,0.1789)" font-size="40" xml:space="preserve" fill="#000000" stroke="none" stroke-width="1" stroke-linecap="butt" font-family="Sans Serif" font-weight="normal" text-anchor="start"><tspan x="0" dy="0">Bricks per second</tspan></text><text transform="translate(267.57474,232.6468) scale(0.1789,0.1789)" font-size="40" xml:space="preserve" fill="#000000" stroke="none" stroke-width="1" stroke-linecap="butt" font-family="Sans Serif" font-weight="normal" text-anchor="start"><tspan x="0" dy="0">Wall</tspan></text><text transform="translate(351.57474,232.6468) scale(0.1789,0.1789)" font-size="40" xml:space="preserve" fill="#000000" stroke="none" stroke-width="1" stroke-linecap="butt" font-family="Sans Serif" font-weight="normal" text-anchor="start"><tspan x="0" dy="0">Twitter Rants</tspan></text><text transform="translate(289.96628,284.1468) scale(0.1789,0.1789)" font-size="40" xml:space="preserve" fill="#000000" stroke="none" stroke-width="1" stroke-linecap="butt" font-family="Sans Serif" font-weight="normal" text-anchor="start"><tspan x="0" dy="0">The Land of Walls</tspan></text><text transform="translate(97.01411,334.38801) rotate(5.97742) scale(0.20747,0.20747)" font-size="40" xml:space="preserve" fill="#000000" stroke="none" stroke-width="1" stroke-linecap="butt" font-family="Sans Serif" font-weight="normal" text-anchor="middle"><tspan x="0" dy="0">PS, i heard if u get over 100 twitter rants Elon</tspan><tspan x="0" dy="46.150000000000006px"> gives u a launch code to something</tspan></text><text transform="translate(11.125,25) scale(0.5,0.5)" font-size="40" xml:space="preserve" fill="#000000" stroke="none" stroke-width="1" stroke-linecap="butt" font-family="Sans Serif" font-weight="normal" text-anchor="start"><tspan x="0" dy="0">Launch Code:</tspan></text><path d="M264.75,79.5c-3.31371,0 -6,-2.68629 -6,-6v-39c0,-3.31371 2.68629,-6 6,-6h110.5c3.31371,0 6,2.68629 6,6v39c0,3.31371 -2.68629,6 -6,6z" fill="#b1b1b1" stroke="#000000" stroke-width="4" stroke-linecap="butt"/><text transform="translate(269.09749,65.58482) scale(1.06689,1.06689)" font-size="40" xml:space="preserve" fill="#000000" stroke="none" stroke-width="1" stroke-linecap="butt" font-family="Sans Serif" font-weight="normal" text-anchor="start"><tspan x="0" dy="0">Shop</tspan></text><path d="M38,308.5c-3.31371,0 -6,-2.68629 -6,-6v-196c0,-3.31371 2.68629,-6 6,-6h159c3.31371,0 6,2.68629 6,6v196c0,3.31371 -2.68629,6 -6,6z" fill="#b1b1b1" stroke="#000000" stroke-width="4" stroke-linecap="butt"/><text transform="translate(73.09749,141.75458) scale(0.92774,0.92774)" font-size="40" xml:space="preserve" fill="#000000" stroke="none" stroke-width="1" stroke-linecap="butt" font-family="Sans Serif" font-weight="normal" text-anchor="start"><tspan x="0" dy="0">Stats</tspan></text><path d="M187.30303,148.81083h-141" fill="none" stroke="#000000" stroke-width="2.5" stroke-linecap="round"/><text transform="translate(45.59749,175.78877) scale(0.59536,0.59536)" font-size="40" xml:space="preserve" fill="#000000" stroke="none" stroke-width="1" stroke-linecap="butt" font-family="Sans Serif" font-weight="normal" text-anchor="start"><tspan x="0" dy="0">Bricks:</tspan></text><text transform="translate(46.59749,200.78877) scale(0.59536,0.59536)" font-size="40" xml:space="preserve" fill="#000000" stroke="none" stroke-width="1" stroke-linecap="butt" font-family="Sans Serif" font-weight="normal" text-anchor="start"><tspan x="0" dy="0">Walls:</tspan></text><text transform="translate(45.59749,226.78877) scale(0.59536,0.59536)" font-size="40" xml:space="preserve" fill="#000000" stroke="none" stroke-width="1" stroke-linecap="butt" font-family="Sans Serif" font-weight="normal" text-anchor="start"><tspan x="0" dy="0">BPC:</tspan></text><text transform="translate(46.09749,252.28877) scale(0.59536,0.59536)" font-size="40" xml:space="preserve" fill="#000000" stroke="none" stroke-width="1" stroke-linecap="butt" font-family="Sans Serif" font-weight="normal" text-anchor="start"><tspan x="0" dy="0">BPS:</tspan></text><text transform="translate(46.09749,277.28877) scale(0.59536,0.59536)" font-size="40" xml:space="preserve" fill="#000000" stroke="none" stroke-width="1" stroke-linecap="butt" font-family="Sans Serif" font-weight="normal" text-anchor="start"><tspan x="0" dy="0">Rants:</tspan></text><text transform="translate(45.59749,300.03037) scale(0.49096,0.49096)" font-size="40" xml:space="preserve" fill="#000000" stroke="none" stroke-width="1" stroke-linecap="butt" font-family="Sans Serif" font-weight="normal" text-anchor="start"><tspan x="0" dy="0">Multiplier:</tspan></text><path d="M422.32673,261.5c-1.8373,0 -3.32673,-1.15623 -3.32673,-2.58252v-127.83495c0,-1.42629 1.48943,-2.58252 3.32673,-2.58252h161.34653c1.8373,0 3.32673,1.15623 3.32673,2.58252v127.83495c0,1.42629 -1.48943,2.58252 -3.32673,2.58252z" fill="#b1b1b1" stroke="#000000" stroke-width="4" stroke-linecap="butt"/><text transform="translate(426.09749,156.84675) scale(0.5034,0.5034)" font-size="40" xml:space="preserve" fill="#000000" stroke="none" stroke-width="1" stroke-linecap="butt" font-family="Sans Serif" font-weight="normal" text-anchor="start"><tspan x="0" dy="0">Multiplier Chart</tspan></text><path d="M431.30303,166.81083h141" fill="none" stroke="#000000" stroke-width="2.5" stroke-linecap="round"/><text transform="translate(443.59749,185.0875) scale(0.35834,0.35834)" font-size="40" xml:space="preserve" fill="#000000" stroke="none" stroke-width="1" stroke-linecap="butt" font-family="Sans Serif" font-weight="normal" text-anchor="start"><tspan x="0" dy="0">0 Twitter rants = 1</tspan></text><text transform="translate(432.59749,202.0875) scale(0.35834,0.35834)" font-size="40" xml:space="preserve" fill="#000000" stroke="none" stroke-width="1" stroke-linecap="butt" font-family="Sans Serif" font-weight="normal" text-anchor="start"><tspan x="0" dy="0">100 Twitter rants = 2</tspan></text><text transform="translate(433.59749,218.5875) scale(0.35834,0.35834)" font-size="40" xml:space="preserve" fill="#000000" stroke="none" stroke-width="1" stroke-linecap="butt" font-family="Sans Serif" font-weight="normal" text-anchor="start"><tspan x="0" dy="0">500 Twitter rants = 3</tspan></text><text transform="translate(429.59749,234.0875) scale(0.35834,0.35834)" font-size="40" xml:space="preserve" fill="#000000" stroke="none" stroke-width="1" stroke-linecap="butt" font-family="Sans Serif" font-weight="normal" text-anchor="start"><tspan x="0" dy="0">1500 Twitter rants = 4</tspan></text><text transform="translate(430.59749,249.0875) scale(0.35834,0.35834)" font-size="40" xml:space="preserve" fill="#000000" stroke="none" stroke-width="1" stroke-linecap="butt" font-family="Sans Serif" font-weight="normal" text-anchor="start"><tspan x="0" dy="0">5000 Twitter rants = 5</tspan></text></g></g></svg>