<svg version="1.1" xmlns="http://www.w3.org/2000/svg" xmlns:xlink="http://www.w3.org/1999/xlink" width="205.81163" height="102.24219" viewBox="0,0,205.81163,102.24219"><g transform="translate(-137.09419,-128.87892)"><g data-paper-data="{&quot;isPaintingLayer&quot;:true}" fill-rule="nonzero" stroke-linecap="butt" stroke-linejoin="miter" stroke-miterlimit="10" stroke-dasharray="" stroke-dashoffset="0" style="mix-blend-mode: normal"><path d="M148.86253,220.61822c-11.6094,-6.80448 -20.11077,-71.11659 1.94691,-82.50963c26.33888,-13.60434 152.55933,-10.93602 173.27448,0c27.30705,14.41603 23.36974,71.70889 -1.94691,85.38789c-21.8463,11.80388 -152.71474,9.17221 -173.27446,-2.87824z" fill="none" stroke="#000000" stroke-width="0"/><path d="M164.35965,208.28204c-9.30926,-4.49966 -16.12629,-47.02795 1.56116,-54.56193c21.12043,-8.99628 122.3332,-7.23175 138.94412,0c21.89678,9.53304 18.73957,47.41961 -1.56116,56.46526c-17.51795,7.80567 -122.45782,6.06539 -138.94412,-1.90332z" fill="#b1b1b1" stroke="#000000" stroke-width="3"/><text transform="translate(198.15179,197.07535) scale(1.31681,1.31681)" font-size="40" xml:space="preserve" fill="#000000" fill-rule="nonzero" stroke="none" stroke-width="1" stroke-linecap="butt" stroke-linejoin="miter" stroke-miterlimit="10" stroke-dasharray="" stroke-dashoffset="0" font-family="Sans Serif" font-weight="normal" text-anchor="start" style="mix-blend-mode: normal"><tspan x="0" dy="0">Yes</tspan></text></g></g></svg>