<svg version="1.1" xmlns="http://www.w3.org/2000/svg" xmlns:xlink="http://www.w3.org/1999/xlink" width="694.17718" height="636.12606" viewBox="0,0,694.17718,636.12606"><g transform="translate(9.56758,210.13507)"><g stroke-miterlimit="10"><path d="M-3.57357,405.97598v-424.92492h639.63964v424.92492z" fill="#000000" stroke="none" stroke-width="NaN"/><path d="M2.43243,411.98198v-108.10811h677.17718v108.10811z" fill="#00af53" stroke="none" stroke-width="0"/><path d="M7.43243,425.99099v-108.10811h677.17718v108.10811z" fill="#b04e00" stroke="none" stroke-width="0"/><g stroke="#000000"><g fill="#ff0000" stroke-width="0"><path d="M348.53603,-126.80174c0,46.02373 -22.85633,83.33333 -51.05105,83.33333c-28.19472,0 -51.05105,-37.3096 -51.05105,-83.33333c0,-46.02373 22.85633,-83.33333 51.05105,-83.33333c28.19472,0 51.05105,37.3096 51.05105,83.33333z"/><path d="M290.47296,-47.65406c0,21.65823 -10.75592,39.21569 -24.02402,39.21569c-13.2681,0 -24.02402,-17.55746 -24.02402,-39.21569c0,-21.65823 10.75592,-39.21569 24.02402,-39.21569c13.2681,0 24.02402,17.55746 24.02402,39.21569z"/><path d="M352.53002,-45.65706c0,21.65822 -10.75592,39.21568 -24.02402,39.21568c-13.2681,0 -24.02402,-17.55746 -24.02402,-39.21568c0,-21.65822 10.75593,-39.21568 24.02402,-39.21568c13.2681,0 24.02402,17.55746 24.02402,39.21568z"/></g><path d="M317.74774,-139.06901c0,19.0729 -9.41143,34.53453 -21.02102,34.53453c-11.60959,0 -21.02102,-15.46164 -21.02102,-34.53453c0,-19.0729 9.41143,-34.53453 21.02102,-34.53453c11.60959,0 21.02102,15.46164 21.02102,34.53453z" fill="#009bad" stroke-width="4"/></g><path d="M-9.56757,425.99099v-108.10811h694.17718v108.10811z" fill="#b04e00" stroke="none" stroke-width="0"/></g></g></svg>